<svg xmlns="http://www.w3.org/2000/svg" viewBox="0 0 64 64" role="img" aria-label="Fallout Shelter Save Editor">
  <!-- Blue disc -->
  <circle cx="32" cy="32" r="31" fill="#2b86d8"/>
  <!-- Radiation trefoil (Fallout fallout-shelter mark) -->
  <g fill="#f9d61c">
    <path d="M21.38 11.6 A23 23 0 0 1 42.62 11.6 L35.92 24.46 A8.5 8.5 0 0 0 28.08 24.46 Z"/>
    <path d="M54.98 33.0 A23 23 0 0 1 44.36 51.4 L36.57 39.17 A8.5 8.5 0 0 0 40.49 32.37 Z"/>
    <path d="M19.64 51.4 A23 23 0 0 1 9.02 33.0 L23.51 32.37 A8.5 8.5 0 0 0 27.43 39.17 Z"/>
    <circle cx="32" cy="32" r="5"/>
  </g>
</svg>
